<svg xmlns="http://www.w3.org/2000/svg" viewBox="0 0 200 200" width="200" height="200">
  <rect x="8" y="8" width="184" height="184" rx="28" fill="#fffbeb"/>
  <rect x="8" y="8" width="184" height="184" rx="28" fill="none" stroke="#1e3a8a" stroke-width="4"/>
  <!-- Lotus petals -->
  <g fill="#f97316">
    <path d="M100 46 Q112 70 100 92 Q88 70 100 46 Z"/>
    <path d="M68 58 Q90 72 96 92 Q72 86 68 58 Z" opacity="0.85"/>
    <path d="M132 58 Q110 72 104 92 Q128 86 132 58 Z" opacity="0.85"/>
    <path d="M46 82 Q74 86 92 98 Q64 102 46 82 Z" opacity="0.65"/>
    <path d="M154 82 Q126 86 108 98 Q136 102 154 82 Z" opacity="0.65"/>
  </g>
  <!-- Open book -->
  <path d="M44 112 Q72 100 100 112 Q128 100 156 112 L156 148 Q128 136 100 148 Q72 136 44 148 Z" fill="#1e3a8a"/>
  <path d="M48 116 Q73 106 97 116 L97 142 Q73 132 48 142 Z" fill="#ffffff"/>
  <path d="M152 116 Q127 106 103 116 L103 142 Q127 132 152 142 Z" fill="#ffffff"/>
  <line x1="100" y1="112" x2="100" y2="148" stroke="#1e3a8a" stroke-width="3"/>
  <text x="100" y="174" text-anchor="middle" font-family="Georgia, serif" font-size="15" font-weight="bold" fill="#15803d" letter-spacing="2.5">HindiUSA</text>
</svg>